<svg xmlns="http://www.w3.org/2000/svg" version="1.0" width="2048.000000pt" height="2048.000000pt" viewBox="0 0 2048.000000 2048.000000" preserveAspectRatio="xMidYMid meet" transform="matrix(1, 0, 0, 1, 0, 0)">

<g transform="translate(0.000000,2048.000000) scale(0.100000,-0.100000)" fill="#ffffff" stroke="none">
<path d="M10040 20023 c-448 -14 -661 -28 -935 -62 -306 -38 -340 -43 -360 -51 -11 -5 -94 -18 -185 -31 -91 -12 -167 -25 -170 -29 -3 -4 -54 -14 -115 -24 -60 -9 -119 -21 -130 -26 -11 -5 -69 -18 -130 -30 -60 -12 -119 -25 -130 -30 -11 -5 -63 -19 -115 -30 -52 -12 -104 -25 -115 -30 -11 -5 -58 -19 -105 -31 -47 -12 -96 -27 -110 -34 -14 -6 -54 -20 -90 -29 -36 -9 -72 -20 -80 -23 -8 -4 -17 -7 -20 -8 -3 -1 -12 -5 -20 -8 -8 -3 -42 -14 -75 -23 -33 -9 -67 -21 -75 -25 -8 -5 -49 -20 -90 -33 -121 -40 -224 -77 -235 -85 -5 -5 -41 -19 -80 -31 -38 -12 -75 -27 -81 -31 -6 -5 -37 -18 -69 -29 -32 -11 -63 -24 -69 -29 -6 -4 -36 -18 -66 -29 -50 -18 -106 -43 -240 -104 -173 -79 -630 -314 -700 -359 -27 -18 -108 -63 -155 -87 -16 -9 -32 -18 -35 -22 -3 -4 -25 -17 -50 -31 -25 -13 -47 -27 -50 -30 -3 -3 -18 -13 -35 -22 -23 -12 -233 -147 -335 -216 -8 -6 -31 -21 -50 -34 -19 -13 -55 -38 -80 -56 -25 -17 -63 -43 -85 -58 -22 -14 -42 -29 -45 -33 -3 -4 -23 -19 -45 -34 -65 -43 -200 -147 -355 -271 -20 -16 -54 -43 -75 -60 -320 -254 -802 -714 -1064 -1015 -40 -47 -79 -89 -85 -95 -10 -8 -52 -58 -201 -232 -21 -24 -129 -161 -195 -248 -38 -49 -76 -99 -85 -110 -100 -131 -249 -345 -380 -550 -112 -175 -122 -191 -161 -255 -21 -36 -44 -75 -51 -85 -103 -172 -276 -486 -287 -522 -4 -13 -13 -29 -20 -35 -6 -7 -22 -39 -35 -70 -13 -32 -27 -58 -32 -58 -5 0 -9 -5 -9 -10 0 -9 -40 -102 -115 -265 -7 -16 -25 -55 -39 -85 -13 -30 -34 -80 -46 -110 -12 -30 -25 -59 -30 -65 -4 -5 -13 -28 -20 -50 -7 -22 -23 -62 -35 -90 -13 -27 -30 -70 -39 -95 -8 -25 -29 -83 -46 -130 -18 -47 -45 -125 -61 -175 -16 -49 -33 -99 -39 -110 -5 -11 -19 -54 -31 -95 -12 -41 -25 -79 -29 -85 -4 -5 -17 -48 -30 -94 -12 -46 -26 -91 -30 -100 -8 -15 -33 -113 -87 -341 -13 -58 -28 -114 -33 -125 -5 -11 -18 -69 -30 -130 -12 -60 -25 -119 -30 -130 -5 -11 -19 -76 -30 -144 -12 -69 -23 -129 -26 -133 -7 -11 -30 -171 -39 -268 -4 -41 -11 -79 -15 -85 -4 -5 -15 -80 -24 -165 -17 -154 -29 -261 -45 -395 -5 -38 -15 -253 -22 -477 -10 -336 -10 -460 1 -715 19 -445 21 -467 31 -478 5 -5 9 -30 9 -55 0 -73 40 -463 49 -485 5 -11 16 -80 26 -154 9 -74 23 -155 30 -180 7 -25 21 -91 30 -146 9 -55 20 -109 25 -120 5 -11 20 -76 34 -145 32 -163 128 -547 146 -585 5 -11 16 -48 25 -82 8 -34 36 -122 61 -195 25 -73 58 -171 74 -218 49 -148 128 -355 222 -580 38 -90 55 -130 153 -345 53 -118 180 -370 187 -373 5 -2 8 -8 8 -14 0 -5 26 -57 58 -115 31 -58 68 -126 82 -151 14 -26 32 -58 41 -72 9 -14 46 -77 84 -140 81 -138 83 -142 221 -349 60 -90 114 -171 119 -179 6 -9 35 -52 65 -95 30 -43 62 -89 70 -100 57 -85 260 -347 370 -478 30 -36 62 -75 70 -85 76 -93 264 -304 355 -399 28 -28 84 -87 126 -131 181 -187 514 -498 679 -635 19 -16 58 -48 85 -71 92 -76 229 -184 340 -266 61 -45 117 -87 125 -95 8 -7 28 -21 45 -32 16 -10 34 -22 40 -27 27 -23 106 -79 132 -95 16 -10 103 -67 194 -127 203 -135 236 -155 409 -256 47 -27 90 -53 95 -57 6 -4 31 -19 57 -33 25 -14 94 -51 151 -82 58 -32 110 -58 115 -58 6 0 12 -3 14 -8 2 -6 137 -74 353 -179 17 -8 55 -24 85 -35 30 -12 57 -24 60 -28 3 -4 33 -18 68 -30 34 -12 62 -26 62 -30 0 -4 19 -13 42 -19 24 -7 66 -23 93 -36 46 -22 124 -52 300 -118 39 -14 100 -38 136 -52 36 -14 90 -32 120 -41 30 -9 68 -22 84 -29 42 -18 238 -80 313 -100 35 -9 71 -20 80 -25 10 -5 62 -19 117 -31 55 -12 105 -25 110 -29 6 -4 57 -18 115 -30 58 -13 112 -27 120 -31 8 -5 65 -18 125 -29 61 -12 119 -25 130 -30 24 -11 203 -43 445 -79 96 -14 180 -29 185 -32 6 -4 111 -17 235 -29 124 -12 241 -26 260 -30 64 -16 551 -35 880 -34 337 0 838 20 855 34 6 4 60 10 120 14 124 8 349 35 535 65 69 11 143 23 165 26 22 4 49 10 60 15 11 5 72 18 135 29 184 32 373 71 395 81 11 5 67 19 125 31 58 12 110 24 115 28 6 3 55 18 110 32 186 49 290 80 315 93 14 8 61 24 105 36 44 12 85 26 90 30 6 4 42 17 80 28 76 23 222 75 270 96 17 8 41 17 55 21 14 4 48 17 75 30 28 12 68 28 90 35 22 7 45 17 51 21 6 5 37 18 69 29 32 11 63 24 69 29 6 5 38 20 71 32 33 12 62 25 65 29 3 3 21 12 40 20 63 24 387 180 490 236 14 7 68 37 120 65 52 29 110 60 128 70 18 9 38 22 45 27 7 5 36 23 65 38 83 45 73 39 342 209 19 12 75 48 125 81 49 32 97 64 106 69 36 21 194 130 204 141 6 6 31 25 58 42 26 18 53 36 60 42 6 6 35 28 63 48 27 21 57 43 65 50 7 6 56 44 108 84 122 95 263 209 327 267 28 25 80 71 114 101 70 61 81 71 236 217 155 144 411 405 545 554 169 187 419 491 554 674 8 11 27 36 42 56 16 20 46 62 68 94 22 31 51 72 65 90 69 92 312 463 336 513 9 17 20 32 25 32 5 0 9 4 9 10 0 5 29 58 64 117 35 60 72 123 82 142 11 19 33 59 50 90 18 31 56 103 85 161 30 58 59 112 65 120 6 8 22 41 34 73 13 31 27 57 32 57 4 0 8 5 8 10 0 6 21 55 46 108 25 53 59 124 74 157 48 100 65 140 131 308 11 28 31 75 45 104 13 28 24 56 24 62 0 6 11 34 24 63 13 29 31 78 41 108 10 30 21 60 25 65 4 6 17 42 29 80 12 39 26 79 31 90 17 34 71 206 91 289 11 44 23 84 28 90 4 6 19 54 31 106 13 52 26 97 30 100 3 3 17 52 29 110 13 58 27 110 31 115 4 6 17 60 29 120 12 61 26 119 31 130 6 11 11 36 13 55 8 73 30 195 37 205 4 6 17 78 30 160 12 83 26 159 31 170 14 33 58 409 84 725 46 564 33 1418 -28 1890 -8 58 -22 168 -31 245 -10 77 -21 149 -26 160 -4 11 -18 94 -31 185 -12 91 -25 167 -29 170 -3 3 -14 57 -24 120 -11 63 -22 120 -26 125 -4 6 -17 64 -30 130 -13 66 -26 125 -30 130 -4 6 -13 37 -20 70 -6 33 -22 92 -35 130 -13 39 -31 99 -40 135 -9 36 -24 88 -34 115 -10 28 -24 75 -31 105 -7 30 -16 57 -20 60 -4 3 -17 43 -29 90 -13 47 -27 90 -31 95 -4 6 -18 46 -31 90 -12 44 -26 82 -29 85 -4 3 -19 39 -33 80 -34 102 -74 206 -97 257 -11 24 -20 45 -20 48 0 9 -91 216 -140 321 -23 49 -63 132 -87 184 -65 137 -175 356 -212 420 -18 30 -41 73 -52 95 -10 22 -37 69 -59 105 -22 36 -45 75 -50 88 -6 13 -24 43 -40 67 -17 24 -30 46 -30 50 0 3 -8 18 -19 33 -10 15 -36 54 -56 87 -59 93 -79 124 -131 204 -27 40 -54 83 -61 95 -12 20 -33 50 -125 179 -20 29 -47 67 -60 85 -13 18 -58 78 -101 135 -43 56 -86 113 -95 127 -9 13 -26 34 -37 46 -11 12 -38 46 -60 74 -43 56 -251 306 -295 355 -207 229 -605 633 -730 740 -30 26 -59 53 -65 59 -17 20 -151 135 -315 269 -193 158 -191 156 -270 217 -36 28 -72 57 -81 65 -9 8 -19 15 -23 15 -3 0 -35 21 -69 48 -73 55 -110 81 -175 125 -26 17 -51 37 -55 44 -4 7 -12 13 -17 13 -5 0 -51 28 -102 63 -51 34 -111 73 -133 87 -21 14 -53 34 -70 45 -17 11 -53 33 -81 50 -27 16 -51 32 -54 35 -9 10 -152 90 -161 90 -5 0 -17 8 -27 18 -10 9 -38 27 -62 40 -25 13 -72 38 -105 57 -33 19 -85 47 -115 62 -30 15 -57 31 -60 34 -5 7 -396 199 -404 199 -3 0 -38 15 -78 34 -215 99 -261 120 -343 151 -33 12 -109 43 -170 67 -60 25 -135 53 -165 63 -30 10 -57 21 -60 24 -3 4 -41 18 -85 31 -44 13 -82 27 -85 30 -3 4 -34 14 -70 24 -36 10 -78 24 -95 31 -38 17 -181 58 -310 90 -55 14 -107 29 -115 34 -9 5 -61 19 -115 31 -55 13 -104 26 -110 30 -5 5 -59 18 -120 29 -60 12 -119 26 -130 31 -23 11 -172 39 -405 76 -91 14 -174 30 -185 34 -21 9 -90 19 -315 46 -74 9 -146 18 -160 19 -108 15 -437 35 -735 45 -266 9 -316 9 -515 3z m820 -558 c157 -7 375 -26 405 -35 17 -5 113 -19 215 -30 102 -12 214 -28 250 -35 36 -8 119 -22 185 -30 66 -9 124 -20 130 -24 5 -5 66 -18 135 -30 69 -13 129 -26 135 -30 5 -5 60 -18 120 -31 61 -12 115 -26 120 -30 8 -6 90 -27 176 -44 8 -2 21 -6 29 -9 8 -3 62 -19 120 -36 173 -49 285 -85 288 -93 2 -5 9 -8 16 -8 17 0 133 -37 173 -56 17 -8 34 -14 37 -14 4 0 55 -19 114 -41 59 -23 136 -52 172 -66 85 -32 222 -88 285 -117 28 -13 84 -38 125 -57 106 -48 562 -279 640 -324 36 -21 79 -45 95 -53 17 -8 49 -28 72 -44 23 -15 45 -28 49 -28 4 0 30 -14 58 -32 28 -17 67 -41 86 -53 59 -36 152 -96 212 -137 31 -21 61 -38 67 -38 6 0 11 -4 11 -10 0 -5 14 -17 31 -25 25 -14 92 -59 134 -93 6 -5 24 -17 40 -28 17 -10 46 -30 65 -45 19 -14 89 -66 155 -115 227 -168 480 -378 690 -574 44 -41 102 -95 129 -120 88 -80 338 -338 471 -484 50 -54 97 -106 105 -115 41 -45 271 -324 310 -376 25 -33 48 -62 51 -65 4 -3 17 -21 30 -40 13 -20 30 -42 36 -50 35 -42 145 -194 158 -219 8 -16 18 -31 22 -33 5 -1 49 -63 98 -135 114 -168 153 -229 284 -448 59 -98 63 -105 173 -305 94 -173 318 -625 318 -643 0 -5 11 -32 25 -60 34 -73 123 -290 151 -367 39 -112 74 -204 89 -237 8 -17 15 -37 15 -45 0 -8 4 -18 8 -23 5 -6 28 -71 51 -145 24 -74 47 -144 52 -155 10 -23 49 -162 86 -310 13 -55 29 -109 34 -120 8 -18 27 -101 79 -350 11 -49 29 -133 40 -185 30 -136 40 -187 50 -255 5 -33 13 -82 19 -110 5 -27 7 -52 5 -54 -5 -6 -3033 -7 -3050 -1 -9 4 16 22 68 50 46 24 85 46 88 49 3 3 25 17 50 31 25 13 50 28 55 32 10 8 120 82 153 103 8 6 23 17 33 25 11 8 31 25 46 37 105 82 267 238 393 378 37 41 54 76 42 84 -12 8 -85 62 -175 131 -40 30 -94 71 -120 90 -27 19 -60 45 -75 57 l-27 21 -125 -127 c-170 -174 -294 -274 -515 -418 -55 -36 -262 -140 -305 -154 -19 -7 -53 -20 -75 -30 -141 -65 -477 -135 -717 -150 -200 -13 -474 -1 -626 27 -117 22 -112 19 -113 56 -3 129 -38 881 -43 913 -3 22 -15 303 -26 625 -11 322 -25 614 -30 650 -5 36 -19 328 -30 650 -11 322 -23 605 -26 630 -8 72 -32 617 -36 820 -2 119 1 185 7 185 6 0 16 4 23 8 11 7 160 40 306 67 88 17 378 31 491 25 174 -9 355 -27 355 -35 0 -4 6 -7 13 -7 42 -1 247 -47 247 -56 0 -6 3 -8 6 -5 6 6 163 -39 179 -52 6 -4 39 -18 75 -30 36 -13 67 -26 70 -30 3 -4 22 -13 42 -19 20 -7 52 -22 70 -34 18 -12 47 -28 63 -35 17 -7 48 -25 70 -39 97 -63 162 -109 185 -130 14 -13 28 -23 32 -23 19 0 305 -278 363 -354 28 -35 55 -67 62 -70 6 -2 78 47 160 109 81 63 167 127 189 142 69 46 71 56 25 116 -93 120 -307 345 -389 410 -30 23 -87 68 -127 100 -40 31 -77 57 -82 57 -5 0 -18 8 -29 18 -61 55 -490 282 -533 282 -6 0 -30 9 -54 19 -52 24 -264 88 -336 101 -29 5 -75 16 -100 24 -26 8 -117 21 -202 30 -85 9 -188 21 -229 26 -41 5 -160 8 -265 7 -530 -8 -987 -115 -1385 -325 -146 -76 -161 -85 -319 -191 -95 -64 -279 -220 -390 -332 -91 -90 -249 -276 -297 -349 -13 -19 -36 -53 -52 -76 -16 -22 -42 -62 -57 -90 -16 -27 -32 -51 -35 -54 -3 -3 -16 -27 -30 -55 -14 -27 -30 -56 -37 -63 -7 -7 -13 -18 -13 -23 0 -5 -13 -38 -29 -72 -31 -67 -94 -226 -106 -267 -3 -14 -13 -38 -20 -55 -7 -16 -21 -68 -30 -115 -10 -47 -21 -92 -25 -101 -9 -17 -34 -176 -52 -329 -14 -124 -14 -506 1 -640 18 -167 41 -323 51 -345 5 -11 18 -67 30 -125 12 -58 25 -109 30 -115 4 -5 16 -39 25 -75 10 -36 21 -69 25 -75 4 -5 17 -36 29 -68 22 -60 73 -177 93 -212 6 -10 25 -46 42 -80 49 -93 72 -130 139 -227 34 -49 69 -100 77 -111 66 -98 259 -312 361 -402 117 -102 273 -225 287 -225 4 0 17 -8 28 -18 10 -10 39 -29 64 -42 25 -14 49 -29 55 -33 5 -5 45 -28 89 -51 l78 -43 -108 -5 c-97 -4 -1405 -4 -1931 0 l-203 2 0 180 0 180 -1270 0 -1270 0 0 1075 0 1075 1270 0 1270 0 0 255 0 255 -467 0 c-258 0 -829 3 -1270 7 l-803 6 0 849 0 848 1275 0 1275 0 0 260 0 260 -1545 0 -1545 0 0 -1110 0 -1110 -532 -2 -533 -3 0 -220 0 -220 533 -3 532 -2 0 -1290 0 -1290 -72 0 c-40 0 -244 -3 -453 -7 -209 -3 -400 -3 -425 1 l-45 7 -34 82 c-19 45 -47 109 -61 142 -83 186 -147 338 -155 365 -4 14 -12 30 -17 36 -5 7 -19 38 -32 70 -13 33 -41 97 -61 144 -73 168 -98 226 -120 280 -13 30 -40 93 -60 140 -73 168 -98 226 -120 280 -13 30 -39 91 -58 135 -19 44 -55 130 -81 190 -26 61 -58 133 -71 162 -14 28 -25 55 -25 58 0 7 -135 321 -205 480 -13 28 -40 91 -60 140 -45 107 -98 230 -131 302 -13 28 -24 54 -24 58 0 3 -16 43 -36 88 -20 45 -50 114 -66 152 -17 39 -41 93 -54 122 -13 28 -24 54 -24 57 0 3 -13 35 -30 71 -16 36 -30 69 -30 73 0 4 -14 34 -30 67 -16 33 -30 64 -30 68 0 4 -13 37 -30 72 -16 35 -30 67 -30 70 0 2 -16 39 -35 81 -19 41 -35 81 -35 87 0 7 -8 26 -19 43 -10 17 -22 41 -26 55 -4 13 -20 52 -36 86 -16 34 -29 64 -29 67 0 3 -13 34 -29 68 -15 35 -32 74 -36 88 -4 14 -16 41 -26 60 -10 19 -28 60 -40 90 -11 30 -24 59 -29 65 -4 5 -13 26 -19 46 -12 38 -16 22 64 249 20 58 45 131 55 162 11 31 24 65 29 75 5 10 20 50 32 88 12 39 25 75 29 80 4 6 15 37 25 70 10 33 21 65 25 70 4 6 17 42 29 80 13 39 27 79 32 90 16 35 99 280 99 292 0 14 -95 60 -181 88 -30 10 -58 21 -64 25 -5 4 -41 18 -79 30 -67 22 -69 22 -80 4 -6 -11 -11 -21 -12 -24 -1 -6 -7 -22 -41 -105 -13 -33 -34 -87 -45 -120 -12 -33 -24 -62 -27 -65 -4 -3 -13 -25 -21 -50 -8 -25 -21 -61 -29 -80 -8 -19 -15 -37 -16 -40 -1 -3 -5 -14 -10 -25 -35 -88 -75 -194 -80 -212 -8 -27 -23 -30 -32 -5 -3 9 -21 51 -40 92 -63 134 -72 154 -113 248 -22 50 -40 95 -40 100 -1 4 -11 30 -24 57 -18 38 -21 53 -13 61 31 31 361 274 371 274 3 0 14 7 23 16 33 30 367 245 518 332 236 137 609 336 715 381 14 6 32 15 40 20 21 13 276 126 325 144 22 8 78 31 125 51 88 39 188 78 325 127 44 16 89 33 100 38 19 10 88 32 295 99 52 17 124 38 160 47 36 8 74 20 85 25 11 5 61 19 110 30 50 11 101 25 115 30 25 10 145 38 389 90 73 16 140 32 150 36 9 4 81 17 161 30 80 13 172 28 205 34 132 23 483 59 875 89 113 9 934 6 1140 -4z m-6657 -2264 c-2 -6 1 -11 6 -11 5 0 15 -17 21 -37 7 -21 20 -51 30 -68 10 -16 26 -52 36 -80 10 -27 21 -52 24 -55 3 -3 12 -21 20 -40 7 -19 26 -62 40 -95 15 -33 44 -98 65 -145 20 -47 50 -112 65 -145 71 -152 90 -195 90 -207 0 -12 -44 -119 -96 -233 -60 -133 -73 -163 -90 -205 -10 -25 -23 -54 -30 -65 -6 -11 -15 -31 -19 -45 -4 -14 -15 -43 -25 -65 -45 -100 -103 -232 -165 -375 -37 -85 -73 -169 -80 -185 -8 -17 -23 -53 -35 -80 -12 -27 -27 -63 -35 -80 -16 -36 -75 -172 -117 -270 -17 -38 -41 -93 -54 -122 -13 -28 -24 -55 -24 -58 0 -3 -13 -32 -29 -65 -16 -32 -32 -69 -36 -82 -4 -12 -18 -48 -32 -78 -13 -30 -40 -91 -60 -135 -19 -44 -42 -96 -51 -115 -30 -68 -84 -196 -99 -235 -8 -22 -18 -44 -23 -50 -5 -6 -17 -33 -29 -61 -21 -55 -46 -111 -92 -211 -16 -34 -29 -65 -29 -69 0 -8 -50 -122 -96 -219 -13 -28 -24 -53 -24 -57 0 -4 -15 -39 -34 -80 -18 -40 -37 -84 -41 -98 -4 -14 -13 -32 -20 -40 -7 -8 -16 -26 -20 -40 -7 -25 -55 -137 -101 -236 -13 -28 -24 -54 -24 -57 0 -3 -16 -40 -35 -81 -19 -42 -35 -79 -35 -82 0 -3 -11 -29 -24 -57 -13 -29 -41 -90 -61 -137 -20 -47 -48 -108 -61 -137 -13 -28 -24 -54 -24 -57 0 -6 -59 -142 -100 -231 -10 -22 -26 -60 -36 -85 -10 -25 -30 -67 -44 -95 l-25 -50 -708 -3 c-643 -2 -708 -1 -714 13 -9 25 81 547 107 615 5 14 18 70 29 125 29 143 78 347 90 376 6 13 20 60 31 104 12 44 25 89 30 100 5 11 17 47 26 80 20 76 107 335 147 440 61 160 119 309 128 324 4 9 24 57 45 106 35 88 49 120 114 260 51 110 137 283 183 370 89 165 127 236 170 312 25 43 53 94 64 113 62 109 148 246 316 500 9 14 44 63 77 110 33 47 68 96 78 110 9 14 51 70 92 124 41 54 80 106 85 115 23 39 260 325 372 451 148 166 266 291 434 459 178 178 258 253 389 367 25 21 47 43 49 47 5 12 26 1 24 -12z m9542 -1053 c2 -7 11 -213 20 -458 9 -245 20 -503 26 -575 5 -71 20 -411 34 -755 14 -343 27 -631 29 -640 5 -17 8 -86 37 -780 10 -267 24 -541 29 -610 10 -138 13 -330 5 -330 -5 0 -148 70 -231 114 -18 9 -37 23 -44 31 -7 8 -17 15 -23 15 -5 0 -32 16 -58 35 -27 19 -53 35 -59 35 -5 0 -13 6 -17 13 -4 7 -24 24 -43 37 -103 70 -306 268 -426 417 -41 50 -74 94 -74 96 0 3 -24 40 -53 83 -29 44 -74 124 -101 179 -27 55 -53 109 -58 119 -39 75 -113 313 -142 461 -20 96 -46 382 -46 496 0 113 25 377 45 486 26 137 107 402 143 468 6 11 34 68 63 127 28 59 58 113 65 119 8 6 14 16 14 22 0 13 91 150 108 160 6 4 12 13 12 18 0 31 306 351 380 398 14 8 31 24 38 33 7 10 19 18 26 18 8 0 19 7 26 15 13 16 128 93 170 115 14 7 27 16 30 19 9 11 45 30 58 30 7 1 14 -5 17 -11z m-8826 -570 c14 -29 34 -78 47 -108 21 -53 45 -108 84 -195 10 -22 35 -79 55 -127 l37 -88 -25 -52 c-51 -109 -96 -214 -103 -240 -3 -16 -10 -28 -14 -28 -5 0 -16 -23 -26 -52 -9 -28 -30 -78 -45 -109 -16 -32 -29 -64 -29 -71 0 -8 -7 -23 -15 -34 -8 -12 -24 -48 -36 -80 -12 -33 -25 -64 -30 -69 -4 -6 -17 -35 -29 -65 -12 -30 -32 -78 -46 -107 -13 -28 -24 -55 -24 -60 0 -5 -9 -25 -20 -46 -11 -21 -28 -59 -36 -85 -9 -26 -22 -54 -30 -63 -8 -8 -14 -21 -14 -27 0 -6 -16 -45 -35 -86 -19 -42 -35 -79 -35 -83 0 -3 -13 -35 -30 -70 -16 -34 -30 -65 -30 -68 0 -2 -11 -28 -24 -57 -13 -29 -43 -98 -66 -153 -23 -55 -50 -116 -60 -135 -10 -19 -25 -53 -33 -75 -8 -22 -47 -114 -87 -205 -40 -91 -81 -187 -92 -215 -11 -27 -24 -55 -28 -60 -5 -6 -18 -37 -31 -70 -12 -33 -26 -65 -30 -71 -5 -6 -16 -30 -24 -55 -9 -24 -26 -66 -39 -94 -13 -27 -37 -81 -54 -120 -16 -38 -46 -107 -66 -152 -20 -45 -36 -85 -36 -89 0 -4 -14 -36 -31 -73 -59 -126 -69 -148 -84 -191 -8 -24 -19 -48 -24 -54 -5 -6 -14 -28 -21 -49 -8 -25 -21 -42 -37 -48 -13 -5 -128 -9 -254 -9 -188 0 -231 3 -235 14 -3 8 6 38 19 68 14 29 38 82 54 118 17 36 36 82 42 102 7 21 16 40 21 43 5 3 14 22 21 43 6 20 27 69 45 108 18 38 36 82 39 97 4 15 11 27 15 27 4 0 11 12 15 27 3 15 22 60 41 100 19 40 34 76 34 78 0 3 14 34 30 68 17 35 30 67 30 70 0 4 15 40 34 80 19 40 38 85 41 100 4 15 10 27 14 27 4 0 15 24 25 53 10 28 24 61 30 72 7 11 23 47 36 80 13 33 29 69 36 80 6 11 19 44 29 73 9 28 20 52 25 52 4 0 11 12 14 26 6 24 64 161 107 250 10 23 19 44 19 47 0 3 18 45 40 92 22 47 40 92 40 100 0 7 6 20 13 27 7 7 22 38 34 68 39 103 88 215 95 220 4 4 16 31 27 60 11 30 31 79 45 107 14 29 26 56 26 60 0 5 7 22 16 38 9 17 22 46 29 66 13 35 22 57 94 212 17 37 31 70 31 74 0 3 11 29 24 57 13 28 40 89 60 136 20 47 48 108 61 136 14 28 25 54 25 58 0 4 16 41 35 82 19 41 35 77 35 81 0 3 11 29 25 57 46 97 105 236 105 250 0 7 6 19 14 25 8 7 17 22 20 34 9 39 36 97 44 97 4 0 18 -24 31 -52z m494 -1158 c15 -33 34 -78 42 -100 8 -22 21 -51 30 -63 8 -12 15 -27 15 -34 0 -7 15 -45 34 -85 18 -40 37 -84 41 -98 4 -14 13 -34 19 -45 7 -11 23 -46 35 -79 12 -32 28 -68 36 -80 8 -11 15 -26 15 -34 0 -7 15 -45 34 -85 18 -40 37 -83 41 -97 4 -14 11 -27 14 -30 4 -3 18 -34 31 -70 13 -36 27 -67 30 -70 4 -3 17 -34 30 -70 13 -36 26 -67 30 -70 3 -3 17 -34 30 -70 13 -36 27 -67 30 -70 3 -3 17 -34 30 -70 13 -36 32 -78 42 -95 10 -16 18 -36 18 -42 0 -7 15 -45 34 -85 18 -40 37 -84 41 -98 4 -14 11 -27 14 -30 4 -3 18 -34 31 -70 13 -36 32 -78 42 -95 10 -16 18 -36 18 -42 0 -7 15 -45 34 -85 18 -40 37 -84 41 -98 4 -14 11 -27 14 -30 4 -3 18 -34 31 -70 13 -36 32 -78 42 -95 10 -16 18 -36 18 -42 0 -7 16 -46 35 -87 19 -41 35 -82 35 -90 0 -8 6 -21 13 -28 7 -7 24 -42 37 -78 13 -36 32 -78 42 -95 10 -16 18 -36 18 -43 0 -7 9 -32 20 -54 11 -23 17 -44 14 -47 -3 -3 -561 -6 -1240 -7 -1222 0 -1234 0 -1234 19 0 11 14 49 30 84 17 34 30 65 30 68 0 2 14 34 30 70 17 36 30 68 30 70 0 3 14 35 31 72 58 125 76 168 94 218 10 28 22 55 25 60 4 6 26 55 50 110 23 55 55 127 70 160 15 33 31 71 35 85 4 14 11 30 15 35 5 6 18 35 30 65 12 30 30 73 40 95 10 22 52 119 93 215 85 198 120 277 148 336 10 22 19 43 19 47 0 4 16 40 35 81 19 41 35 78 35 81 0 4 13 35 29 68 15 34 32 73 36 87 4 14 11 30 15 35 5 6 18 35 30 65 12 30 29 73 40 95 19 42 60 138 125 290 22 50 42 95 46 100 4 6 17 35 29 65 32 84 44 110 50 110 3 0 18 -27 33 -60z m14029 -3300 c13 -129 31 -449 36 -660 5 -231 -13 -858 -30 -1030 -11 -116 -11 -119 -32 -275 -8 -60 -15 -113 -16 -118 0 -4 -4119 -6 -9152 -5 l-9153 3 -17 165 c-9 91 -22 206 -28 255 -24 209 -32 491 -26 955 4 261 11 509 16 550 18 144 21 165 26 198 l5 32 9182 -2 9182 -3 7 -65z m-5697 -2515 c13 -14 30 -40 39 -58 9 -18 36 -62 59 -98 23 -36 59 -93 81 -127 43 -69 45 -69 92 1 16 23 31 44 34 47 3 3 21 27 40 53 19 26 49 66 67 87 17 22 41 56 53 75 l22 35 89 0 c59 0 89 -4 89 -11 0 -6 -29 -50 -64 -98 -243 -327 -286 -386 -286 -395 0 -13 168 -285 307 -498 29 -44 73 -115 99 -159 26 -43 53 -84 60 -90 8 -6 14 -15 14 -20 0 -9 42 -78 100 -164 15 -22 29 -44 31 -50 2 -5 20 -34 38 -63 l34 -52 18 26 c10 15 25 48 35 73 9 25 23 53 30 62 8 8 14 19 14 22 0 4 47 103 105 221 58 117 105 218 105 225 0 6 4 11 8 11 5 0 20 27 33 60 13 33 27 60 31 60 5 0 8 5 8 11 0 6 50 112 110 234 61 123 110 228 110 233 0 6 6 12 13 15 40 14 -37 20 -332 22 -209 2 -337 7 -349 14 -35 19 -52 42 -52 70 0 33 21 63 147 209 l33 37 87 0 c82 0 88 -1 85 -20 -2 -11 -18 -36 -35 -56 -53 -60 -77 -89 -77 -94 0 -3 139 -5 309 -5 303 0 355 -5 373 -33 25 -39 7 -89 -148 -404 -86 -175 -222 -451 -301 -613 -283 -577 -287 -584 -314 -599 -30 -16 -72 -9 -95 17 -26 30 -94 136 -94 149 0 6 -4 13 -8 15 -9 3 -45 58 -150 228 -39 63 -94 151 -122 195 -28 44 -69 110 -93 147 -23 37 -66 106 -96 153 -30 48 -60 94 -65 104 -6 10 -18 29 -27 42 -9 13 -46 74 -84 134 -37 61 -78 126 -90 145 -137 217 -166 264 -237 375 -25 39 -48 80 -52 92 -7 20 -3 22 46 26 29 2 63 4 76 5 14 1 33 -8 47 -23z m3142 -2 c10 -16 20 -30 24 -33 4 -3 32 -43 63 -90 51 -76 144 -212 182 -265 28 -38 125 -180 151 -220 14 -22 29 -42 33 -45 3 -3 32 -43 63 -90 31 -47 84 -123 116 -170 33 -47 95 -138 140 -202 l80 -118 63 53 c35 29 73 59 85 67 12 8 63 49 115 91 102 83 124 94 171 85 34 -7 32 -4 169 -206 43 -63 115 -169 160 -236 66 -95 242 -353 292 -428 12 -17 -42 -166 -60 -166 -13 0 -124 150 -124 168 0 6 -4 12 -8 14 -5 2 -52 66 -104 143 -163 241 -311 459 -339 497 l-26 37 -188 -149 c-160 -129 -192 -150 -222 -150 -44 0 -61 19 -189 206 -99 145 -140 203 -255 369 -38 55 -94 136 -124 180 -30 44 -85 124 -123 178 -37 53 -109 159 -161 235 -52 75 -107 153 -122 173 -16 20 -33 48 -38 62 -12 30 -3 33 96 36 58 1 64 -1 80 -26z m-12473 5 c-4 -7 -53 -73 -108 -147 -56 -73 -112 -148 -126 -167 -14 -18 -64 -84 -111 -146 -48 -62 -146 -192 -219 -287 -73 -96 -161 -212 -196 -258 -35 -46 -94 -122 -131 -170 -36 -49 -74 -97 -85 -109 -18 -20 -17 -21 79 -111 54 -50 126 -117 159 -149 34 -33 117 -111 185 -174 68 -63 157 -147 199 -187 41 -39 86 -81 100 -93 14 -12 56 -51 93 -88 l69 -67 26 31 c53 60 98 112 124 146 15 19 40 48 55 64 15 17 44 50 63 73 19 24 44 53 55 65 11 13 38 45 60 71 22 27 103 124 180 215 77 92 158 188 180 215 22 27 45 53 50 59 6 6 32 38 59 71 28 33 60 71 72 85 52 58 144 169 144 174 0 4 -160 6 -355 6 l-356 0 -24 25 c-14 13 -25 35 -25 49 0 20 100 186 130 216 5 5 25 35 121 176 29 44 56 81 59 84 3 3 17 23 30 45 13 22 27 42 30 45 4 3 18 21 31 41 13 20 50 75 83 123 l58 86 84 0 c63 0 84 -3 84 -13 0 -7 -32 -60 -72 -118 -128 -185 -147 -212 -234 -339 -47 -69 -107 -156 -134 -195 l-49 -70 364 -3 363 -2 26 -31 c14 -17 26 -37 26 -44 0 -24 -18 -62 -42 -87 -13 -14 -34 -38 -48 -55 -14 -16 -43 -52 -65 -79 -22 -26 -116 -139 -210 -249 -93 -111 -186 -221 -206 -246 -21 -24 -48 -56 -60 -70 -13 -15 -40 -46 -59 -70 -19 -23 -44 -53 -55 -65 -27 -29 -84 -98 -129 -154 -20 -25 -47 -56 -60 -70 -12 -14 -51 -59 -85 -100 -35 -41 -77 -90 -93 -109 -16 -19 -50 -61 -75 -92 -82 -104 -131 -103 -245 6 -40 39 -107 102 -148 140 -78 72 -330 307 -386 360 -18 17 -87 82 -155 145 -67 63 -137 129 -154 145 -91 88 -316 298 -337 314 l-24 19 -38 -46 c-20 -26 -46 -58 -57 -72 -10 -14 -47 -59 -82 -101 -34 -42 -102 -127 -152 -189 -49 -62 -106 -131 -125 -154 -19 -23 -48 -59 -65 -80 -16 -22 -66 -83 -110 -136 -44 -53 -100 -123 -125 -155 -25 -31 -54 -68 -65 -81 -11 -12 -36 -43 -55 -68 -51 -66 -104 -84 -142 -49 -23 21 -24 80 -1 113 9 14 51 66 93 116 41 51 97 120 125 155 27 35 57 73 67 84 20 22 213 260 353 436 50 61 126 156 170 209 44 54 96 118 115 144 52 68 107 74 167 18 112 -105 235 -217 241 -219 6 -2 116 133 167 206 11 16 54 72 95 126 41 54 82 107 90 119 8 11 26 35 40 52 14 16 35 43 47 60 12 16 43 57 70 92 26 34 59 78 73 96 91 122 263 348 274 358 6 7 23 29 36 48 13 19 29 38 35 42 5 4 50 8 98 8 68 0 86 -3 81 -12z m3232 -54 c27 -37 56 -77 64 -89 8 -12 31 -40 50 -63 l35 -41 134 129 135 130 98 0 c96 0 111 -6 84 -32 -7 -7 -91 -89 -185 -181 -187 -185 -179 -168 -122 -242 16 -22 43 -57 58 -78 15 -20 51 -66 78 -101 44 -56 92 -119 175 -231 14 -18 59 -77 100 -131 41 -55 84 -111 95 -126 11 -15 101 -134 200 -263 99 -130 194 -255 211 -278 17 -23 36 -42 42 -42 6 0 61 68 121 150 61 83 114 155 118 160 5 6 30 39 56 75 27 36 54 73 62 82 7 9 22 29 32 45 10 15 68 94 128 175 131 176 186 250 283 383 40 55 81 110 90 122 9 12 35 47 57 78 22 31 54 75 72 98 18 23 30 44 27 46 -5 5 -178 16 -664 44 -247 14 -266 19 -276 74 -7 38 3 56 68 126 l46 48 98 -3 99 -3 -39 -43 c-21 -23 -37 -44 -35 -47 3 -2 197 -13 432 -24 236 -12 436 -25 445 -30 36 -19 55 -50 49 -79 -6 -28 -63 -114 -182 -274 -28 -37 -107 -145 -178 -240 -70 -95 -131 -177 -135 -183 -4 -5 -19 -26 -32 -45 -14 -19 -29 -40 -35 -46 -5 -6 -41 -55 -80 -108 -38 -53 -113 -154 -165 -224 -52 -71 -119 -162 -149 -203 -30 -40 -68 -93 -85 -116 -17 -23 -39 -52 -48 -65 -9 -12 -31 -41 -48 -63 -16 -22 -40 -54 -51 -72 -22 -34 -68 -51 -111 -39 -14 3 -53 46 -98 107 -41 56 -87 115 -101 133 -29 36 -147 191 -169 222 -20 29 -133 178 -140 184 -3 3 -34 43 -70 90 -35 47 -118 156 -184 243 -67 88 -130 171 -141 187 -11 15 -52 70 -92 121 -39 52 -105 139 -147 194 -42 55 -83 109 -92 120 -8 11 -30 39 -47 63 -18 23 -62 82 -99 130 -37 48 -68 93 -68 100 0 9 24 12 88 12 l88 0 50 -66z m-135 -961 c16 -10 29 -22 29 -28 1 -5 28 -39 61 -75 34 -36 91 -99 128 -140 37 -41 78 -86 91 -101 14 -14 63 -68 110 -119 47 -52 108 -120 136 -150 61 -66 81 -111 66 -144 -15 -34 -62 -48 -98 -30 -31 16 -40 25 -249 254 -73 80 -156 170 -184 200 l-50 55 -1 -536 0 -536 22 -29 c30 -39 181 -206 448 -493 125 -136 140 -156 140 -198 0 -33 -29 -73 -52 -73 -34 0 -79 30 -133 90 -33 36 -103 113 -156 170 -53 58 -129 141 -169 185 -40 44 -77 82 -82 83 -5 2 -8 -223 -8 -517 l1 -521 32 -37 c18 -20 70 -76 117 -123 47 -48 164 -169 260 -270 96 -101 184 -192 194 -202 14 -12 20 -32 20 -65 1 -40 -3 -49 -25 -61 -57 -33 -60 -30 -441 366 -75 79 -140 142 -144 140 -6 -3 -5 -467 1 -518 2 -14 4 -109 4 -212 l1 -188 501 0 c420 0 503 2 515 14 8 8 14 18 14 21 0 5 69 112 206 319 10 16 30 47 43 70 13 23 33 53 45 67 12 15 48 69 80 120 33 52 80 125 105 163 25 37 55 82 66 100 10 17 83 128 160 246 78 118 150 230 160 248 11 17 23 32 27 32 4 0 8 5 8 10 0 6 12 29 28 52 15 22 35 52 44 67 10 14 22 33 28 41 6 8 34 51 62 95 28 44 55 82 60 83 4 2 8 8 8 14 0 5 17 35 38 66 21 32 64 95 94 142 95 147 223 343 254 389 16 24 33 51 39 60 5 9 27 42 47 73 21 32 38 63 38 69 0 6 -19 39 -42 73 -23 33 -57 84 -75 111 -18 28 -37 57 -43 65 -6 8 -33 49 -60 90 -28 41 -55 82 -60 90 -6 8 -33 49 -60 90 -68 103 -71 107 -104 153 -88 124 -103 173 -64 214 39 41 96 22 138 -45 22 -35 44 -68 131 -199 8 -11 37 -54 64 -94 28 -41 55 -81 60 -90 6 -10 33 -50 60 -90 28 -41 55 -81 60 -90 20 -34 90 -129 95 -129 5 0 22 26 67 99 12 20 25 41 30 46 9 10 45 65 128 195 27 41 52 77 57 78 4 2 8 7 8 12 0 5 19 37 43 73 23 35 58 89 77 121 19 31 43 67 53 79 11 12 26 36 34 52 40 78 117 110 158 65 22 -24 13 -102 -16 -131 -10 -10 -19 -21 -19 -25 0 -5 -86 -139 -102 -159 -4 -5 -26 -37 -47 -70 -133 -207 -182 -281 -189 -290 -4 -5 -19 -28 -32 -50 -13 -22 -27 -42 -30 -45 -4 -3 -13 -16 -20 -30 -7 -14 -34 -57 -60 -95 l-46 -71 35 -56 c31 -49 117 -178 151 -228 6 -8 33 -49 60 -90 28 -41 55 -82 60 -90 6 -8 33 -49 60 -90 27 -41 53 -79 57 -85 4 -5 71 -104 148 -220 77 -115 143 -214 148 -220 7 -10 159 -236 214 -320 14 -22 51 -77 82 -123 31 -45 72 -106 91 -136 99 -150 140 -212 147 -221 4 -5 28 -41 54 -80 52 -81 57 -88 124 -187 28 -41 55 -81 60 -90 6 -9 34 -50 63 -92 28 -41 52 -80 52 -86 0 -5 3 -10 8 -10 4 0 27 -32 52 -70 l45 -70 535 0 535 0 -3 367 c-1 203 -3 429 -5 502 l-2 135 -179 -195 c-98 -106 -188 -203 -200 -215 -12 -12 -52 -55 -89 -97 -37 -41 -81 -80 -97 -87 -43 -18 -79 -5 -95 33 -11 27 -11 36 3 64 14 25 178 209 342 384 14 14 66 70 115 125 50 54 116 125 147 159 l58 60 0 513 c0 281 -2 512 -5 512 -3 0 -53 -51 -112 -112 -60 -62 -151 -157 -203 -211 -52 -54 -124 -129 -160 -167 -60 -64 -99 -90 -136 -90 -26 0 -54 38 -54 73 0 33 33 79 125 172 30 30 297 310 459 480 l86 90 0 518 c0 311 -4 517 -9 515 -5 -1 -75 -78 -154 -170 -80 -92 -151 -174 -158 -181 -8 -8 -41 -45 -74 -83 -33 -37 -70 -78 -82 -91 -44 -45 -111 -39 -135 12 -17 37 3 72 113 195 52 58 123 139 159 180 35 41 74 84 85 95 11 12 43 47 70 80 28 32 76 89 108 125 33 36 70 81 83 102 28 44 72 58 109 34 14 -9 25 -21 25 -26 0 -6 35 -48 79 -93 71 -74 161 -172 426 -461 50 -54 114 -123 143 -154 55 -60 66 -82 60 -128 -2 -20 -12 -33 -31 -42 -45 -22 -85 1 -174 98 -80 88 -251 273 -300 326 -16 17 -62 67 -103 112 -41 45 -78 82 -82 82 -5 0 -8 -234 -8 -520 0 -487 1 -521 18 -527 17 -6 84 -72 171 -169 25 -27 76 -83 115 -124 39 -42 105 -114 146 -160 41 -46 89 -98 105 -116 134 -141 138 -146 143 -192 6 -53 -11 -72 -67 -72 -30 0 -44 10 -106 73 -76 79 -156 165 -280 303 -130 144 -219 238 -232 247 -11 6 -13 -100 -13 -557 l0 -565 24 -13 c30 -16 152 -130 536 -503 132 -128 134 -131 134 -174 1 -38 -3 -47 -25 -59 -52 -30 -75 -14 -335 237 -297 287 -322 311 -328 311 -3 0 -7 -216 -8 -480 l-3 -480 985 0 985 0 -3 272 c-1 150 -3 315 -5 367 l-2 94 -22 -24 c-12 -13 -70 -80 -129 -149 -59 -69 -112 -130 -118 -136 -6 -6 -36 -40 -66 -75 -30 -35 -65 -73 -77 -86 -42 -44 -118 -43 -129 2 -15 60 13 107 165 270 15 17 56 64 91 105 35 41 73 85 84 96 12 12 30 32 41 46 11 13 53 63 93 110 l72 86 -7 443 -8 444 -20 -21 c-11 -11 -31 -34 -45 -50 -48 -57 -244 -279 -251 -284 -3 -3 -43 -48 -88 -100 -116 -134 -151 -153 -198 -108 -51 48 -30 90 135 271 32 34 88 98 127 142 38 44 74 85 80 90 6 6 54 59 106 119 52 60 108 125 126 145 l32 36 -1 225 c0 124 -3 294 -7 378 l-6 153 -79 -88 c-70 -77 -182 -200 -297 -325 -65 -70 -150 -61 -148 15 0 18 3 39 7 49 4 9 63 78 132 153 69 76 134 147 145 159 11 12 52 57 90 100 39 43 89 99 112 125 23 25 43 53 43 62 0 30 40 69 70 69 36 0 52 -15 141 -130 41 -52 81 -102 89 -111 8 -9 29 -33 45 -54 37 -46 232 -282 290 -350 45 -53 75 -105 75 -128 0 -26 -41 -67 -65 -67 -46 0 -71 23 -205 187 -74 91 -140 171 -145 177 -42 46 -115 139 -115 146 0 4 -7 11 -15 14 -14 5 -15 -36 -12 -372 2 -207 5 -385 8 -394 6 -19 50 -69 193 -219 360 -377 422 -442 429 -455 5 -8 7 -31 5 -52 -2 -29 -9 -40 -31 -50 -50 -24 -85 -2 -210 131 -63 67 -152 160 -197 207 -44 47 -106 111 -136 143 -31 32 -57 57 -58 55 -2 -1 0 -209 3 -461 l6 -458 95 -91 c182 -175 326 -313 392 -375 75 -71 95 -111 75 -152 -9 -20 -21 -27 -49 -29 -20 -2 -48 3 -61 10 -21 11 -318 288 -414 386 -17 17 -33 32 -35 32 -2 0 -3 -26 -1 -57 2 -32 4 -194 5 -360 l3 -303 658 0 c541 0 657 -2 657 -13 0 -8 -31 -44 -69 -80 l-69 -67 -6412 0 -6411 0 -70 63 c-118 106 -186 97 721 97 l790 0 0 397 0 396 -22 -19 c-13 -10 -26 -24 -30 -30 -6 -10 -85 -102 -262 -309 -109 -128 -130 -145 -173 -145 -23 0 -45 6 -51 13 -24 29 -15 95 18 131 30 33 81 92 187 216 54 63 112 130 128 149 49 54 68 77 110 128 22 26 52 61 68 76 l27 29 0 403 0 404 -32 -33 c-18 -18 -98 -102 -178 -186 -267 -282 -277 -290 -310 -300 -53 -15 -84 5 -88 57 -4 52 -37 13 399 466 52 54 120 126 151 160 l58 62 0 413 c0 226 -2 412 -4 412 -4 0 -249 -292 -335 -400 -59 -73 -82 -89 -127 -90 -23 0 -36 7 -48 25 -29 44 -19 74 53 161 14 17 44 52 66 79 22 27 79 97 127 155 48 58 98 119 112 135 13 17 52 64 86 105 34 41 67 83 75 92 17 21 83 34 104 21 8 -5 24 -28 36 -50 25 -51 28 -54 250 -298 49 -54 188 -206 215 -235 77 -83 88 -107 70 -150 -24 -58 -97 -52 -155 13 -62 69 -176 195 -236 261 -31 34 -72 79 -92 101 l-36 40 -1 -440 0 -440 240 -240 c153 -153 244 -251 250 -271 21 -63 -21 -106 -86 -90 -16 4 -103 83 -213 192 l-186 185 -3 -383 c-2 -353 -1 -384 15 -393 28 -16 61 -52 292 -310 79 -88 160 -178 181 -200 47 -52 60 -76 60 -117 0 -44 -15 -58 -64 -58 -47 0 -51 4 -331 315 -44 49 -97 107 -117 130 l-38 40 0 -388 0 -387 993 0 993 0 -3 513 c-2 281 -5 520 -6 531 -1 13 -40 -23 -129 -120 -69 -77 -143 -157 -164 -179 -20 -22 -76 -83 -123 -135 -149 -167 -165 -180 -205 -180 -50 0 -80 31 -73 75 5 33 18 52 72 109 17 18 73 79 125 136 52 58 120 132 151 165 30 33 87 94 124 135 178 193 186 201 210 215 16 10 17 38 9 545 l-9 534 -298 -298 c-265 -266 -301 -298 -335 -303 -29 -4 -41 0 -56 16 -20 22 -24 68 -7 98 5 10 166 173 357 363 l347 345 -7 295 c-3 162 -6 391 -7 508 0 116 -3 212 -7 212 -4 0 -137 -130 -297 -290 -290 -289 -291 -290 -333 -290 -39 0 -44 3 -56 32 -10 23 -11 40 -4 62 11 33 657 692 713 727 37 23 59 24 96 2z m9746 -1465 c13 -12 23 -30 23 -40 0 -10 97 -116 228 -248 126 -127 235 -242 242 -256 27 -50 -27 -115 -83 -98 -12 3 -102 85 -199 182 l-178 176 6 -279 c7 -363 5 -351 62 -399 26 -21 81 -69 122 -106 41 -37 111 -99 155 -137 44 -38 81 -76 83 -84 4 -20 -68 -111 -84 -107 -7 2 -75 57 -150 123 -76 66 -146 126 -157 134 -20 14 -20 12 -13 -244 l8 -259 29 -37 c16 -20 29 -43 29 -50 0 -20 -169 -219 -185 -219 -10 0 -15 19 -17 71 l-3 70 -205 -206 c-113 -114 -219 -213 -237 -221 -59 -25 -111 16 -98 77 5 20 77 100 246 269 131 133 250 256 264 274 26 34 26 36 24 202 -2 186 -8 264 -18 264 -3 0 -13 -11 -21 -24 -8 -13 -38 -50 -67 -82 -50 -57 -92 -107 -162 -192 -66 -80 -150 -73 -151 11 0 37 12 59 74 133 28 33 67 80 86 104 19 24 64 78 100 119 36 42 82 97 103 123 l38 46 -7 328 c-5 245 -10 324 -18 310 -6 -11 -18 -26 -26 -35 -8 -9 -37 -45 -63 -81 -26 -36 -54 -72 -61 -81 -7 -8 -45 -59 -85 -112 -40 -54 -81 -102 -91 -107 -51 -27 -110 1 -110 52 0 38 9 53 92 162 187 244 214 280 228 300 30 45 124 161 143 179 27 24 76 22 104 -5z m-13702 -33 c14 -13 25 -34 25 -45 0 -12 15 -36 33 -55 17 -18 84 -88 147 -156 63 -67 126 -134 140 -148 99 -103 120 -132 120 -164 0 -49 -21 -71 -65 -71 -39 0 -64 23 -302 280 l-73 79 0 -352 c0 -293 2 -353 14 -360 8 -4 68 -58 133 -119 65 -61 140 -130 167 -155 62 -56 82 -99 64 -137 -11 -22 -21 -28 -55 -30 -41 -3 -46 0 -144 90 -55 51 -119 108 -140 126 l-39 34 0 -211 0 -210 83 -79 c45 -43 125 -118 177 -167 52 -49 102 -96 111 -105 9 -8 36 -34 62 -57 25 -24 51 -51 57 -62 27 -52 -4 -111 -59 -111 -31 0 -55 19 -225 180 -49 47 -115 109 -145 138 l-56 52 -3 -195 c-2 -146 -6 -195 -15 -195 -6 0 -40 30 -74 67 l-63 67 0 98 0 99 -32 -23 c-18 -13 -37 -29 -41 -35 -15 -24 -42 -13 -79 33 -21 26 -38 52 -38 58 0 6 43 44 95 84 l95 73 0 276 c0 153 -4 273 -8 268 -18 -20 -189 -224 -226 -269 -59 -73 -122 -84 -146 -26 -20 48 -3 83 93 197 51 61 108 129 127 153 19 24 63 77 98 119 l62 75 0 310 c0 301 -1 310 -18 291 -10 -11 -79 -91 -152 -178 -73 -87 -144 -167 -158 -177 -36 -29 -87 -26 -108 6 -15 22 -16 30 -4 62 7 21 34 62 59 92 25 30 55 65 66 78 11 13 29 34 40 47 11 13 36 42 55 65 19 23 46 55 60 70 14 15 39 45 56 66 18 22 48 59 68 82 20 24 36 50 36 57 0 19 41 44 73 44 17 1 38 -9 52 -24z m8356 -3184 c19 -23 25 -67 11 -87 -4 -6 -21 -19 -39 -28 -29 -15 -308 -16 -3530 -16 -2122 0 -3511 4 -3530 9 -18 5 -61 31 -95 58 -85 66 -99 81 -85 87 7 2 1640 4 3630 3 l3619 -2 19 -24z m2887 18 c64 -22 63 -102 -1 -132 -32 -16 -129 -17 -1086 -17 -1036 0 -1052 0 -1091 20 -33 17 -40 25 -40 51 0 39 16 68 43 79 33 13 2137 13 2175 -1z m-188 -803 c0 -8 -17 -22 -37 -33 -21 -10 -76 -39 -123 -63 l-85 -45 -575 -2 c-316 -2 -1382 -7 -2369 -12 -987 -4 -1806 -5 -1820 -1 -61 16 -66 101 -8 124 35 15 597 20 3332 32 765 4 1392 8 1394 10 2 2 69 4 148 4 116 0 143 -3 143 -14z m-5701 -40 c28 -25 28 -77 0 -102 -20 -18 -54 -19 -1126 -19 l-1105 0 -19 24 c-34 42 -20 95 31 114 8 3 506 5 1106 4 1058 -2 1093 -3 1113 -21z m3027 -726 c56 -22 69 -71 31 -116 l-24 -27 -373 -12 c-205 -7 -384 -9 -399 -6 -50 14 -64 98 -21 121 27 15 226 30 500 39 135 4 248 9 252 9 4 1 19 -3 34 -8z m-1303 -61 c30 -16 37 -28 37 -66 0 -22 -8 -38 -26 -52 -27 -21 -30 -21 -1008 -21 l-982 0 -174 30 c-96 17 -184 35 -195 40 -11 5 -69 19 -130 31 -60 13 -112 26 -115 30 -3 4 -14 9 -25 12 -11 2 569 5 1288 6 968 1 1314 -2 1330 -10z" fill="#ffffff"/>
<path d="M3080 10843 c-12 -32 -62 -166 -110 -298 -49 -132 -154 -417 -234 -634 -80 -217 -146 -398 -146 -403 0 -5 42 -7 93 -6 l92 3 71 194 c39 106 75 201 81 210 9 14 38 16 279 13 l270 -3 71 -207 71 -207 102 -3 c95 -3 102 -1 95 15 -4 10 -103 286 -220 613 -117 327 -228 634 -246 683 l-32 87 -108 0 -108 0 -21 -57z m234 -461 c54 -158 101 -293 103 -299 4 -10 -43 -13 -217 -13 l-221 0 7 23 c20 66 218 577 223 577 3 0 50 -129 105 -288z" fill="#ffffff"/>
<path d="M12511 10878 c-4 -13 -88 -239 -185 -503 -98 -264 -209 -564 -247 -666 -38 -102 -69 -191 -69 -197 0 -8 28 -12 89 -12 l90 0 21 58 c12 31 47 124 77 207 30 82 58 152 63 155 4 3 129 3 276 0 l268 -5 17 -50 c10 -27 42 -120 72 -205 l54 -155 97 -3 c57 -2 96 1 96 7 0 10 -458 1292 -483 1354 l-16 37 -106 0 c-100 0 -106 -1 -114 -22z m152 -298 c26 -78 161 -463 173 -493 6 -16 -10 -17 -220 -17 l-226 0 10 23 c5 12 52 135 104 272 52 138 99 263 106 279 14 37 22 28 53 -64z" fill="#ffffff"/>
<path d="M14575 10828 l0 -73 -110 -12 c-367 -42 -554 -229 -555 -554 0 -328 207 -530 573 -556 l87 -6 0 -73 0 -73 88 -3 c48 -2 88 -3 89 -3 1 0 3 34 5 75 l3 75 88 7 c373 31 577 228 577 557 -1 333 -204 526 -587 557 l-83 7 0 73 0 74 -87 0 -88 0 0 -72z m-5 -340 c0 -62 1 -246 2 -408 l2 -295 -75 3 c-173 6 -314 83 -374 206 -51 105 -51 286 0 392 28 57 93 122 152 152 61 32 172 57 261 61 l32 1 0 -112z m365 90 c173 -36 280 -149 304 -320 18 -129 -14 -258 -84 -336 -75 -83 -187 -129 -330 -134 l-70 -3 -2 399 c-1 219 0 403 3 408 6 10 102 2 179 -14z" fill="#ffffff"/>
<path d="M4570 10185 l0 -685 90 0 90 0 0 325 0 325 370 0 370 0 0 -325 0 -325 90 0 90 0 0 685 0 685 -90 0 -90 0 0 -280 0 -280 -370 0 -370 0 0 280 0 280 -90 0 -90 0 0 -685z" fill="#ffffff"/>
<path d="M6420 10795 l0 -75 235 0 235 0 0 -610 0 -610 90 0 90 0 0 610 0 610 236 0 235 0 -5 68 c-3 37 -5 70 -5 75 -1 4 -251 7 -556 7 l-555 0 0 -75z" fill="#ffffff"/>
<path d="M8290 10185 l0 -685 104 0 103 0 338 543 c186 298 347 551 357 562 17 19 18 3 18 -543 l0 -562 85 0 85 0 0 685 0 685 -102 0 -103 0 -275 -437 c-151 -240 -306 -487 -345 -549 -38 -62 -73 -113 -77 -114 -5 0 -8 248 -8 550 l0 550 -90 0 -90 0 0 -685z" fill="#ffffff"/>
<path d="M10258 10838 c-2 -18 -2 -327 0 -685 l2 -653 85 0 85 0 0 238 0 237 108 108 c59 59 112 107 117 107 6 0 84 -107 175 -236 91 -130 199 -284 240 -342 l76 -107 112 -3 c106 -2 112 -2 102 15 -12 22 -63 92 -349 492 l-225 313 280 274 279 273 -120 0 -120 1 -330 -330 c-181 -181 -333 -330 -337 -330 -5 0 -8 149 -8 330 l0 330 -84 0 -85 0 -3 -32z" fill="#ffffff"/>
<path d="M16210 10185 l0 -685 505 0 505 0 0 80 0 80 -415 0 -415 0 0 235 0 235 374 0 c240 0 377 4 381 10 3 6 3 42 -1 80 l-7 70 -373 0 -374 0 0 215 0 215 410 0 410 0 0 75 0 75 -500 0 -500 0 0 -685z" fill="#ffffff"/>
<path d="M10250 6038 c-19 -29 -38 -57 -43 -63 -4 -5 -24 -37 -45 -70 -21 -33 -47 -73 -58 -89 -10 -16 -23 -36 -29 -45 -5 -9 -41 -63 -79 -121 -38 -58 -85 -130 -104 -160 -20 -30 -38 -57 -41 -60 -4 -3 -15 -22 -26 -43 -11 -21 -28 -45 -37 -54 -10 -9 -18 -20 -18 -25 0 -8 -88 -143 -171 -265 -16 -23 -29 -46 -29 -51 0 -6 -4 -12 -8 -14 -5 -1 -33 -41 -62 -88 -29 -47 -62 -94 -72 -106 -10 -11 -18 -23 -18 -27 0 -4 -26 -46 -59 -94 -32 -49 -80 -122 -107 -163 -26 -41 -52 -76 -56 -78 -4 -2 -8 -8 -8 -14 0 -5 -42 -73 -93 -151 -121 -182 -256 -390 -290 -444 l-27 -43 434 0 435 0 41 58 c22 31 45 64 50 72 6 8 35 51 65 95 31 44 81 118 112 165 32 47 60 87 63 90 5 5 71 100 144 210 16 25 32 47 35 50 4 3 12 17 20 32 8 15 22 36 30 45 9 10 38 50 63 88 l47 70 -10 625 c-5 344 -10 646 -12 673 l-2 47 -35 -52z" fill="#ffffff"/>
<path d="M10436 5759 c3 -167 9 -376 15 -464 5 -88 9 -248 9 -356 0 -160 3 -199 15 -209 8 -6 31 -37 51 -68 21 -32 40 -59 43 -62 14 -12 51 -70 51 -80 0 -5 4 -10 9 -10 5 0 18 -16 30 -35 11 -20 25 -41 31 -48 12 -13 95 -129 120 -167 8 -13 31 -45 50 -71 52 -72 103 -144 120 -169 8 -12 36 -52 62 -88 44 -62 71 -100 101 -145 11 -16 40 -17 418 -15 l406 3 -109 165 c-61 91 -127 190 -148 220 -21 30 -109 163 -197 295 -88 132 -175 262 -194 289 -19 26 -57 84 -86 129 -29 44 -60 89 -68 101 -9 12 -37 53 -63 92 -26 40 -68 103 -93 140 -25 38 -54 82 -64 99 -10 16 -22 34 -28 40 -5 5 -30 42 -55 81 -26 40 -69 105 -97 145 -27 41 -54 81 -60 90 -5 10 -32 50 -60 90 -27 41 -54 81 -60 91 -5 9 -34 51 -62 93 -29 41 -53 79 -53 84 0 4 -9 16 -20 26 -20 18 -20 16 -14 -286z" fill="#ffffff"/>
<path d="M10360 4545 c-14 -25 -27 -45 -30 -45 -4 0 -16 -18 -29 -40 -12 -22 -26 -40 -32 -40 -5 0 -9 -5 -9 -10 0 -10 -97 -159 -110 -170 -3 -3 -32 -43 -63 -90 -31 -47 -81 -121 -112 -165 -30 -44 -59 -87 -65 -95 -5 -8 -26 -37 -45 -65 l-35 -50 562 -3 c308 -1 563 0 566 3 4 4 -4 18 -53 85 -20 28 -134 190 -157 223 -25 35 -108 152 -116 162 -4 6 -32 46 -62 89 -30 44 -60 87 -67 95 -24 31 -63 87 -85 123 -13 21 -25 38 -28 38 -3 0 -16 -20 -30 -45z" fill="#ffffff"/>
</g>
</svg>